<?xml version="1.0" encoding="utf-8"?>
<!-- Generator: Adobe Illustrator 18.0.0, SVG Export Plug-In . SVG Version: 6.00 Build 0)  -->
<!DOCTYPE svg PUBLIC "-//W3C//DTD SVG 1.1//EN" "http://www.w3.org/Graphics/SVG/1.1/DTD/svg11.dtd">
<svg version="1.1" id="Camada_1" xmlns="http://www.w3.org/2000/svg" xmlns:xlink="http://www.w3.org/1999/xlink" x="0px" y="0px"
	 viewBox="0 0 100 100" enable-background="new 0 0 100 100" xml:space="preserve">
<g>
	<g>
		<path d="M84.1,46.9L79,54.1h11.7v8.8c-2.8,2.2-6.7,3.6-11,3.6c-9.3,0-15.5-7.1-15.5-16.8v-0.1c0-9,6.4-16.6,14.8-16.6
			c5.8,0,9.3,2,12.8,5l5.1-6.3c-4.7-4.1-9.6-6.4-17.5-6.4c-7.7,0-14.1,3.5-18.3,8.9l-3.6-8.7h-9.4l-19.8,48V35.6h14.2l4-9.7H1v9.7
			h16.9v38.3H28h0.1h10.3l2.7-6.8l5.2-13.3h0l6.2-15.6l3.4,8.5c-0.1,1-0.2,2-0.2,3v0.1c0,13.7,9.4,24.2,23.7,24.2
			c8.1,0,14.5-3.4,19-7.3V46.9H84.1z"/>
	</g>
</g>
</svg>
